PathFileType	4	(X/Y/Z)	C:/Users/opensim2020/Desktop/walking_exp_matlab/subject03_walking12_straight_04.trc																																																																																																																																														
DataRate	CameraRate	NumFrames	NumMarkers	Units	OrigDataRate	OrigDataStartFrame	OrigNumFrames																																																																																																																																										
100	100	6	48	mm	100	2272	202																																																																																																																																										
Frame#	Time	LFHD			RFHD			LBHD			RBHD			C7			T10			CLAV			STRN			RBAK			LSHO			LUPA			LELB			LFRM			LWRA			LWRB			LFIN			RSHO			RUPA			RELB			RFRM			RWRA			RWRB			RFIN			LASI			RASI			LPSI			RPSI			LTHI			LKNE			LTIB			LANK			LHEE			LTOE			RTHI			RKNE			RTIB			RANK			RHEE			RTOE			*39			*40			*41			*42			*43			*44			*45			*46			*47		
		X1	Y1	Z1	X2	Y2	Z2	X3	Y3	Z3	X4	Y4	Z4	X5	Y5	Z5	X6	Y6	Z6	X7	Y7	Z7	X8	Y8	Z8	X9	Y9	Z9	X10	Y10	Z10	X11	Y11	Z11	X12	Y12	Z12	X13	Y13	Z13	X14	Y14	Z14	X15	Y15	Z15	X16	Y16	Z16	X17	Y17	Z17	X18	Y18	Z18	X19	Y19	Z19	X20	Y20	Z20	X21	Y21	Z21	X22	Y22	Z22	X23	Y23	Z23	X24	Y24	Z24	X25	Y25	Z25	X26	Y26	Z26	X27	Y27	Z27	X28	Y28	Z28	X29	Y29	Z29	X30	Y30	Z30	X31	Y31	Z31	X32	Y32	Z32	X33	Y33	Z33	X34	Y34	Z34	X35	Y35	Z35	X36	Y36	Z36	X37	Y37	Z37	X38	Y38	Z38	X39	Y39	Z39	X40	Y40	Z40	X41	Y41	Z41	X42	Y42	Z42	X43	Y43	Z43	X44	Y44	Z44	X45	Y45	Z45	X46	Y46	Z46	X47	Y47	Z47	X48	Y48	Z48
																																																																																																																																																	
127	1.26	199.72365	1618.84802	-1470.97888	179.0246	1620.92566	-1339.28735	69.15496	1586.64966	-1486.46326	53.91123	1588.13574	-1356.07458	22.94708	1418.85071	-1420.81921	0.11517	1101.85718	-1418.01697	144.6356	1344.92737	-1421.63794	194.85379	1182.58691	-1429.11328	-23.02353	1238.91956	-1323.60779	93.42804	1384.29236	-1575.90344	96.82143	1190.08167	-1650.39343	127.46271	1072.90698	-1659.67554	216.27765	985.04663	-1643.0564	299.92578	912.5589	-1593.26819	281.51764	891.58038	-1641.07605	349.79459	848.86462	-1622.85864	101.00281	1367.27478	-1261.46667	104.53339	1143.85962	-1188.28015	116.5825	1031.26648	-1176.46814	123.0604	894.49176	-1171.52869	141.19859	795.62799	-1206.46411	114.57568	794.66138	-1158.77136	125.94473	720.02057	-1169.72485	168.22424	944.09729	-1536.69128	176.96786	950.14545	-1299.74683	7.56754	956.2702	-1482.24084	14.54086	972.15186	-1333.96716	180.06224	639.99225	-1581.94141	240.26266	471.00366	-1558.89746	115.25394	319.10071	-1549.12708	-9.92135	154.86125	-1503.06934	-62.48818	148.45708	-1462.97351	92.12577	47.73509	-1476.73523	142.94681	650.88916	-1256.849	164.62949	474.41516	-1299.15051	111.80508	286.28708	-1290.79016	66.93095	74.70557	-1335.96753	17.11818	43.3815	-1383.49268	204.59145	36.94971	-1356.75183	NaN	NaN	NaN	NaN	NaN	NaN	NaN	NaN	NaN	NaN	NaN	NaN	NaN	NaN	NaN	NaN	NaN	NaN	NaN	NaN	NaN	NaN	NaN	NaN	NaN	NaN	NaN
128	1.27	213.40108	1619.22412	-1470.87268	192.39259	1621.19934	-1339.21301	82.75928	1587.23438	-1486.6189	67.27258	1588.68689	-1356.29358	35.9711	1419.5459	-1420.76184	12.88334	1102.6532	-1417.38464	157.44838	1345.36877	-1421.71924	207.71382	1183.1416	-1428.98413	-9.77891	1240.20325	-1322.54614	106.01953	1384.77588	-1575.93799	107.53467	1190.2605	-1650.05396	136.27412	1072.20142	-1659.1167	222.08633	980.646	-1643.16382	303.0795	904.41425	-1594.20728	283.57648	884.55707	-1642.11914	349.71326	838.24347	-1624.08911	114.66793	1368.30811	-1261.71277	121.39516	1145.19641	-1188.08899	135.74037	1032.90967	-1176.26672	145.00877	896.29144	-1171.22095	164.87184	797.79572	-1206.3158	138.50867	796.40131	-1158.50183	152.38638	722.32886	-1168.97705	181.43219	945.47455	-1535.80432	189.29686	950.20831	-1299.09912	20.67732	957.44318	-1482.35315	27.26929	972.8656	-1334.03186	197.29199	642.43323	-1581.31641	260.38852	474.54147	-1556.7738	142.97406	315.73364	-1547.57349	27.99299	143.79311	-1501.63757	-24.17005	133.60442	-1461.88989	137.68613	44.89989	-1475.10266	150.5956	650.90332	-1257.50281	168.06451	473.75348	-1299.02295	113.50482	286.32623	-1290.92859	67.03249	74.95766	-1336.20703	17.96945	43.40443	-1383.67712	204.76305	36.89628	-1356.79053	NaN	NaN	NaN	NaN	NaN	NaN	NaN	NaN	NaN	NaN	NaN	NaN	NaN	NaN	NaN	NaN	NaN	NaN	NaN	NaN	NaN	NaN	NaN	NaN	NaN	NaN	NaN
129	1.28	226.95361	1619.32153	-1470.85352	205.74741	1621.2312	-1339.18762	96.56659	1587.48242	-1486.7063	80.63071	1588.82678	-1356.5177	49.01256	1419.98364	-1420.85339	25.7455	1103.14453	-1416.93066	170.50905	1345.66687	-1421.95227	220.48547	1183.40393	-1428.8092	3.50025	1241.06946	-1321.60803	118.95168	1384.78906	-1575.96875	118.45197	1190.02966	-1649.6842	145.11411	1071.12195	-1658.57336	227.70531	975.94397	-1643.44397	305.78839	896.03113	-1595.41711	285.28979	877.31744	-1643.46765	349.07718	827.40466	-1625.448	128.15527	1369.08301	-1261.94873	138.28796	1146.29126	-1187.87219	154.718	1034.40063	-1175.93103	167.08669	898.07788	-1170.92102	189.1346	800.11932	-1206.17175	162.80637	798.07819	-1158.13965	178.97177	724.66968	-1168.42114	194.6833	946.28516	-1535.32642	201.63411	949.99023	-1298.68567	33.80469	958.0954	-1482.59619	39.98715	973.31146	-1334.07666	214.34541	644.59888	-1580.9281	279.67603	477.70453	-1554.80432	170.60606	312.04306	-1546.16248	67.13302	132.74826	-1500.38672	15.13191	118.85226	-1460.50439	183.45563	42.43571	-1474.02454	158.28745	650.66418	-1257.92029	171.49733	473.27884	-1298.63538	115.14803	286.39481	-1290.93066	67.25637	75.15073	-1336.45923	17.75417	44.22657	-1383.93335	204.83353	36.90475	-1356.65942	NaN	NaN	NaN	NaN	NaN	NaN	NaN	NaN	NaN	NaN	NaN	NaN	NaN	NaN	NaN	NaN	NaN	NaN	NaN	NaN	NaN	NaN	NaN	NaN	NaN	NaN	NaN
130	1.29	240.48289	1619.18213	-1470.78882	218.92473	1621.06689	-1339.20044	109.92859	1587.46179	-1487.0542	93.93462	1588.73657	-1356.86951	62.18113	1420.00208	-1420.94995	38.60623	1103.34607	-1416.64551	183.54704	1345.66956	-1422.14148	233.35286	1183.34351	-1428.61523	16.68419	1241.64502	-1320.81018	131.76944	1384.44385	-1576.23303	129.54832	1189.31946	-1649.31274	153.90222	1069.51929	-1658.1084	233.18919	970.96936	-1643.8667	308.44202	887.26422	-1596.9502	286.66971	870.00928	-1645.12915	347.8555	816.3728	-1627.01392	141.60106	1369.57458	-1262.19055	154.86102	1147.21289	-1187.53906	173.66891	1035.75867	-1175.57129	189.09325	899.73505	-1170.60315	213.18518	802.35339	-1206.06909	187.48309	799.71423	-1157.99719	205.66356	726.76135	-1168.06494	207.97449	946.61945	-1535.01099	213.85837	949.49225	-1298.41321	46.88613	958.39471	-1482.88489	52.61184	973.50189	-1334.2467	231.33354	646.33478	-1580.47681	298.16214	480.38553	-1552.98511	198.38937	308.04965	-1545.09399	107.09471	122.02317	-1499.18262	55.78619	104.50755	-1459.36572	229.51053	40.48363	-1473.66626	165.95544	650.2594	-1258.23169	175.04237	472.56113	-1298.2959	116.90928	286.41287	-1290.99109	67.48478	75.54925	-1336.81555	17.95873	44.85181	-1384.33679	205.15901	36.83582	-1356.91235	NaN	NaN	NaN	NaN	NaN	NaN	NaN	NaN	NaN	NaN	NaN	NaN	NaN	NaN	NaN	NaN	NaN	NaN	NaN	NaN	NaN	NaN	NaN	NaN	NaN	NaN	NaN
131	1.3	254.06329	1618.84399	-1470.80298	232.08641	1620.67236	-1339.20386	123.50696	1587.10559	-1487.37488	107.08293	1588.38464	-1357.22876	75.16429	1419.90369	-1421.32397	51.58001	1103.10095	-1416.46191	196.73244	1345.37903	-1422.28613	246.41196	1182.96558	-1428.38989	29.9616	1241.7196	-1320.10706	144.9007	1383.60278	-1576.50488	140.88647	1188.14478	-1648.86548	162.81401	1067.55701	-1657.73462	238.50587	965.70337	-1644.51257	310.55206	878.69537	-1598.8092	287.84256	862.36743	-1647.00671	346.08807	805.1911	-1628.7865	155.03064	1369.78162	-1262.49072	171.46991	1147.91418	-1187.18262	192.44034	1036.85559	-1175.03162	211.22388	901.28979	-1170.26807	237.49034	804.66486	-1205.88013	212.20903	801.27655	-1157.65161	232.59973	729.0993	-1167.89063	221.38802	946.51184	-1534.86743	226.16331	948.69708	-1298.26526	59.85748	958.18512	-1483.21753	65.08189	973.39197	-1334.48352	247.95964	647.64886	-1580.31787	315.95303	482.54526	-1551.448	225.91603	303.89648	-1544.30823	147.09579	112.12074	-1498.62805	97.24061	90.54743	-1458.64844	276.89886	40.6421	-1473.94873	173.39984	649.55487	-1258.38916	178.80893	471.70209	-1297.96375	118.7602	286.46951	-1291.13171	67.69953	75.92827	-1337.21484	18.19513	45.65359	-1384.99194	205.36148	36.75089	-1356.90698	NaN	NaN	NaN	NaN	NaN	NaN	NaN	NaN	NaN	NaN	NaN	NaN	NaN	NaN	NaN	NaN	NaN	NaN	NaN	NaN	NaN	NaN	NaN	NaN	NaN	NaN	NaN
132	1.31	267.44766	1618.24597	-1470.74292	245.17001	1620.08643	-1339.25842	137.207	1586.48511	-1487.60669	120.13001	1587.83716	-1357.67578	88.48514	1419.40344	-1421.71216	64.50306	1102.54248	-1416.38745	209.993	1344.81335	-1422.48425	259.42361	1182.27112	-1428.13916	43.19501	1241.47302	-1319.53943	158.27907	1382.30029	-1576.76099	152.21524	1186.49597	-1648.42175	171.74313	1065.21399	-1657.44739	243.64748	960.14691	-1645.3811	312.43216	869.69818	-1600.92126	288.6413	854.73895	-1649.18567	343.76157	794.05585	-1630.94141	168.40038	1369.5918	-1262.64832	187.80916	1148.31592	-1186.73706	211.14975	1037.79895	-1174.52136	233.30667	902.72028	-1169.97095	261.99875	806.95276	-1205.86084	236.97095	802.76941	-1157.71936	259.56537	731.29126	-1167.97266	234.85376	946.09509	-1534.77307	238.10606	947.83289	-1298.28015	73.07482	957.61462	-1483.81628	77.38023	972.89777	-1334.88245	264.42401	648.66388	-1580.36584	332.92746	484.0524	-1550.35327	252.98784	299.94412	-1543.84863	187.31125	103.40959	-1498.13879	139.60576	77.49225	-1457.95386	321.91736	41.54208	-1474.93481	180.52075	648.75208	-1258.60767	182.69279	470.86438	-1297.6377	120.71615	286.60129	-1291.3335	67.78014	76.41151	-1337.70276	18.12338	46.47182	-1385.51831	205.52502	36.66012	-1356.98987	NaN	NaN	NaN	NaN	NaN	NaN	NaN	NaN	NaN	NaN	NaN	NaN	NaN	NaN	NaN	NaN	NaN	NaN	NaN	NaN	NaN	NaN	NaN	NaN	NaN	NaN	NaN
